<?xml version="1.0" standalone="no"?>
<!DOCTYPE svg PUBLIC "-//W3C//DTD SVG 20010904//EN"
 "http://www.w3.org/TR/2001/REC-SVG-20010904/DTD/svg10.dtd">
<svg version="1.0" xmlns="http://www.w3.org/2000/svg"
 width="700.000000pt" height="700.000000pt" viewBox="0 0 700.000000 700.000000"
 preserveAspectRatio="xMidYMid meet">
<metadata>
Created by potrace 1.11, written by Peter Selinger 2001-2013
</metadata>
<g transform="translate(0.000000,700.000000) scale(0.100000,-0.100000)"
fill="#000000" stroke="none">
<path d="M3488 5750 c-38 -59 -148 -253 -148 -261 0 -5 -4 -9 -8 -9 -4 0 -13
-12 -19 -27 -7 -16 -23 -46 -36 -68 -14 -22 -84 -143 -157 -270 -72 -126 -135
-234 -140 -240 -4 -5 -21 -35 -37 -65 -66 -120 -87 -155 -95 -158 -4 -2 -8 -8
-8 -13 0 -8 -134 -244 -283 -499 -70 -121 -292 -505 -335 -580 -14 -25 -45
-78 -69 -118 -24 -41 -43 -76 -43 -80 0 -3 -6 -13 -14 -21 -8 -9 -26 -38 -41
-66 -14 -27 -36 -66 -47 -85 -58 -99 -254 -440 -276 -480 -14 -25 -42 -74 -64
-109 -21 -34 -38 -65 -38 -67 0 -3 -11 -21 -23 -42 -23 -36 -160 -272 -352
-607 -51 -88 -106 -184 -124 -213 -17 -29 -31 -57 -31 -62 0 -6 -4 -10 -10
-10 -5 0 -10 -4 -10 -9 0 -5 -23 -49 -52 -98 -94 -162 -147 -257 -143 -261 5
-5 5225 -5 5231 0 2 3 -93 173 -212 379 -119 206 -225 388 -234 404 -9 17 -59
102 -110 190 -96 166 -117 202 -148 258 -11 17 -45 77 -77 132 -32 55 -68 118
-80 140 -12 22 -52 91 -89 153 -36 62 -77 132 -90 155 -33 60 -52 92 -156 272
-51 88 -104 180 -118 205 -13 25 -28 50 -32 55 -7 10 -280 482 -332 575 -14
25 -131 227 -260 450 -129 223 -246 425 -260 450 -14 25 -83 144 -153 265 -71
121 -148 256 -173 300 -24 44 -52 91 -62 105 -9 14 -19 32 -22 40 -3 11 -8 8
-20 -10z"/>
</g>
</svg>
