<?xml version="1.0" encoding="utf-8"?>
<svg xmlns="http://www.w3.org/2000/svg" viewBox="0 0 1280 800">
  <style>
    .hat {
      transform-origin: 868.6px 281.45px;
      animation: hatAnimation 1.5s linear infinite alternate;
    }

    @keyframes hatAnimation {
      from { transform: rotate(5deg); }
      to { transform: rotate(-5deg); }
    }
  </style>
  <rect fill="#212121" width="1280" height="800" />
  <g>
    <g fill="#ffffff">
      <polygon points="294,270.4 394.6,344.9 494.3,270.4 494.3,478.6 294,478.6" />
      <polygon points="501.5,478.6 597,478.6 597.7,270.4 501.5,270.4" />
      <polygon points="604.9,270.4 605.1,478.6 759.1,478.6 733.2,426 694,270.4" />
      <path d="M773.6,352.1c-1.6-42.5-37.9-81.7-79.6-81.7c-40.2,0-63.9,36.4-65.8,39.5c-15.8,25.2-19.9,62,0,90.9c21.6,31.5,65.2,44.5,100.4,27.9C759.4,414.2,774.7,381.4,773.6,352.1z" />
    </g>
    <g>
      <g>
        <polygon fill="#0398db" points="809.4,387.6 926.4,386.2 926.4,414.8 809.4,414.8" />
        <polygon fill="#1565c0" points="767.4,478.6 969.7,478.6 867.7,270.4" />
        <polygon fill="#03a9f4" points="820.2,551.3 939.6,411.1 926.4,386.2 796.2,520.6 816.6,524" />
        <polygon fill="#14b4fc" points="916.9,551.3 798.5,408.9 809.4,387.6 941,520.6 920.5,524" />
      </g>
      <g fill="#e6e6e6">
        <path d="M898.9,326.7H894c-1.3-4.6-5.5-8-10.5-8c-4.3,0-8,2.5-9.7,6c-0.9-1.7-2.6-3.5-5.3-3.5s-4.5,1.7-5.3,3.5c-1.8-3.6-5.5-6-9.7-6c-5,0-9.2,3.4-10.5,8h-4.8c-0.5,0-1,0.4-1,1s0.4,1,1,1h4.4c0,0.3-0.1,0.7-0.1,1c0,6,4.9,10.9,10.9,10.9s10.9-4.9,10.9-10.9c0-0.6-0.1-1.2-0.2-1.8c0.1-0.1,0.1-0.2,0.2-0.4c0-0.2,0.6-4.3,4.2-4.3c3.6,0,4.1,4.1,4.2,4.3c0,0.1,0.1,0.3,0.2,0.4c-0.1,0.6-0.2,1.2-0.2,1.8c0,6,4.9,10.9,10.9,10.9s10.9-4.9,10.9-10.9c0-0.3,0-0.7-0.1-1h4.5c0.5,0,1-0.4,1-1S899.5,326.7,898.9,326.7z M853.5,338.7c-4.9,0-9-4-9-9c0-5,4-9,9-9c4.9,0,9,4,9,9C862.5,334.7,858.4,338.7,853.5,338.7z M883.6,338.7c-4.9,0-9-4-9-9c0-5,4-9,9-9c4.9,0,9,4,9,9C892.6,334.7,888.5,338.7,883.6,338.7z" />
        <path d="M853.5,324.1c-0.5,0-1,0.4-1,0.9c0,0.5,0.4,1,0.9,1c2.7,0.2,4,1.5,4.3,4.4c0.1,0.5,0.5,0.8,1,0.8h0.1c0.5-0.1,0.9-0.6,0.8-1.1C859.1,326.4,857.1,324.4,853.5,324.1z" />
        <path d="M883.7,324.1c-0.5,0-1,0.4-1,0.9c0,0.5,0.4,1,0.9,1c2.7,0.2,4,1.5,4.3,4.4c0.1,0.5,0.5,0.8,1,0.8h0.1c0.5-0.1,0.9-0.6,0.8-1.1C889.3,326.4,887.2,324.4,883.7,324.1z" />
        <path d="M893.3,355.5c-0.1,0.1-0.3,0.2-0.5,0.3l0,0l0,0c-0.8,0.5-1.9,0.9-3.5,1c-4.4,0.2-8.2-7.3-14.2-6.9c-1.5,0.1-3.7,0.4-6.6,3.4c-3-2.9-5.1-3.3-6.6-3.4c-6.1-0.3-9.9,7.1-14.2,6.9c-1.5-0.1-2.7-0.5-3.5-1l0,0l0,0c-0.2-0.1-0.3-0.2-0.5-0.3c-1.4-0.9-0.9,0.7-0.8,1.1c1.2,3.9,4.6,10.2,12.6,10.6c6.4,0.3,10.8-2.6,13.1-5.8c2.2,3.2,6.6,6.1,13.1,5.8c8.1-0.4,11.3-6.6,12.6-10.6C894.3,356.3,894.7,354.7,893.3,355.5z" />
      </g>
      <g class="hat">
        <path fill="#e6e6e6" d="M903.8,296.9c0,3.3-7.3,11.7-35.2,11.7c-28,0-35.2-8.5-35.2-11.7s15.7-3,35.2-3C888,293.9,903.8,293.6,903.8,296.9z" />
        <path fill="#f2f2f2" d="M868.6,254.3c-13.8,0-24.9,1.9-24.9,4.4l1.4,39.6c0,0,5.8,3,23.5,3s23.5-3,23.5-3l1.4-39.6C893.5,256.2,882.3,254.3,868.6,254.3z" />
        <path fill="#1259a9" d="M892.2,292.5c0,0-6.1,3-23.7,3c-17.6,0-23.7-3-23.7-3l0.2,5.8c0,0,5.8,3,23.5,3s23.5-3,23.5-3L892.2,292.5z" />
        <path fill="#e6e6e6" d="M893.5,258.7c0,2.5-11.1,4.4-24.9,4.4c-13.8,0-24.9-1.9-24.9-4.4s11.1-4.4,24.9-4.4C882.3,254.3,893.5,256.2,893.5,258.7z" />
      </g>
    </g>
  </g>
</svg>
