<?xml version="1.0" encoding="utf-8"?>
<svg xmlns="http://www.w3.org/2000/svg" viewBox="0 0 1280 800">
  <style>
    .ligth { animation: ligthAnimation .2s linear infinite alternate; }

    @keyframes ligthAnimation {
      from { opacity: .8; }
      to { opacity: 1; }
    }
  </style>
  <g>
    <g fill="#ffffff">
      <polygon points="294,270.4 394.6,344.9 494.3,270.4 494.3,478.6 294,478.6" />
      <polygon points="501.5,478.6 597,478.6 597.7,270.4 501.5,270.4" />
      <polygon points="604.9,270.4 605.1,478.6 759.1,478.6 733.2,426 694,270.4" />
      <path d="M773.6,352.1c-1.6-42.5-37.9-81.7-79.6-81.7c-40.2,0-63.9,36.4-65.8,39.5c-15.8,25.2-19.9,62,0,90.9c21.6,31.5,65.2,44.5,100.4,27.9C759.4,414.2,774.7,381.4,773.6,352.1z" />
    </g>
    <g>
      <g fill="#70a83b">
        <path d="M839.9,349.1l-75.7,121.1c-2.3,3.7,0.3,8.4,4.7,8.4h158.5c4.3,0,6.9-4.7,4.7-8.4l-75.7-121.1C852.6,343,843.7,343,839.9,349.1z" />
        <path d="M839.2,301.9l-64.7,103.5c-2.3,3.7,0.3,8.4,4.7,8.4h136.5c4.3,0,6.9-4.7,4.7-8.4l-64.7-103.5C851.9,295.8,843,295.8,839.2,301.9z" />
        <path d="M839.2,276.2l-37.7,60.4c-2.3,3.7,0.3,8.4,4.7,8.4h82.7c4.3,0,6.9-4.7,4.7-8.4l-37.7-60.4C851.9,270.1,843,270.1,839.2,276.2z" />
      </g>
      <path fill="#f7be1a" d="M847.7,245l2.5,7.7c0.1,0.2,0.2,0.3,0.4,0.3h8.1c0.4,0,0.6,0.5,0.2,0.7l-6.6,4.8c-0.1,0.1-0.2,0.3-0.1,0.5l2.5,7.7c0.1,0.4-0.3,0.7-0.6,0.5l-6.6-4.8c-0.1-0.1-0.3-0.1-0.5,0l-6.6,4.8c-0.3,0.2-0.7-0.1-0.6-0.5l2.5-7.7c0.1-0.2,0-0.4-0.1-0.5l-6.6-4.8c-0.3-0.2-0.2-0.7,0.2-0.7h8.1c0.2,0,0.3-0.1,0.4-0.3l2.5-7.7C847.1,244.7,847.6,244.7,847.7,245z" />
      <g class="ligth">
        <circle fill="#f44336" cx="848.2" cy="329.3" r="11" />
        <circle fill="#ff5722" cx="823.7" cy="382.7" r="15.9" />
        <circle fill="#ec407a" cx="880.4" cy="394.1" r="7.8" />
        <circle fill="#f44336" cx="872.1" cy="434.4" r="10.4" />
        <circle fill="#03a9f4" cx="808.1" cy="443.3" r="8.8" />
      </g>
    </g>
  </g>
</svg>
